<svg xmlns="http://www.w3.org/2000/svg" width="29.65" height="29.72" viewBox="0 0 29.65 29.72"><path d="M6.54,9.09c-.14-.35-.3-.69-.47-1a.61.61,0,0,1,.16-.91,1.24,1.24,0,0,0,.36-1.43A1.3,1.3,0,0,0,5.44,4.8a13.09,13.09,0,0,0-1.77-.06c-.33,0-.44.15-.43.47,0,.66,0,1.33,0,2h0c0,.66,0,1.32,0,2,0,.28,0,.48.4.48s.47-.15.45-.49,0-.65,0-1,.17-.53.52-.55a.61.61,0,0,1,.63.42c.19.44.41.87.61,1.31s.54.33.79.23S6.6,9.27,6.54,9.09ZM4.65,6.89C4,6.94,4,6.62,4.11,6.17c-.18-.6.18-.64.66-.62.7,0,1.09.22,1.08.61S5.39,6.83,4.65,6.89ZM4.33,20.3c-.21,0-.43,0-.64,0s-.48.17-.47.51c0,.63,0,1.26,0,1.89h0c0,.66,0,1.33,0,2a.44.44,0,0,0,.33.49,2.31,2.31,0,0,0,3-1.57C7.18,21.71,6.29,20.38,4.33,20.3Zm1.38,3.37a1.25,1.25,0,0,1-1.46.7c-.22-.07-.2-.22-.2-.38v-1.3a5,5,0,0,0,0-1c-.09-.5.17-.58.55-.58A1.1,1.1,0,0,1,5.77,22,3,3,0,0,1,5.71,23.67Zm2.6-10.82C8,14.3,7.56,15.71,7.2,17.14c-.06.24-.25.3-.49.32a.43.43,0,0,1-.47-.36c-.19-.7-.38-1.42-.58-2.17A2.63,2.63,0,0,0,5.2,16a8.46,8.46,0,0,0-.29,1,.51.51,0,0,1-.58.44C4,17.46,4,17.23,3.9,17c-.31-1.27-.64-2.54-.94-3.82-.06-.21-.25-.53.16-.61s.59,0,.67.4c.11.64.28,1.27.43,1.89a.88.88,0,0,0,.22.49,20.91,20.91,0,0,0,.62-2c.05-.15.08-.31.13-.47a.43.43,0,0,1,.49-.32c.25,0,.31.18.36.39.19.77.39,1.53.59,2.3a2.58,2.58,0,0,0,.16.35c.24-.93.48-1.76.65-2.6.08-.38.27-.46.59-.46S8.36,12.61,8.31,12.85Zm2.53,7.84c0,.3-.05.52-.45.51a9.26,9.26,0,0,1-1.29,0c-.62-.1-.52.37-.56.72s0,.58.47.51a6.21,6.21,0,0,1,.86,0c.33,0,.42.11.44.43s-.25.33-.46.35-.43,0-.65,0-.54-.13-.63.12a2.57,2.57,0,0,0,0,1c0,.15.18.11.31.1l1.35,0a.51.51,0,0,1,.55.54c0,.4-.32.31-.55.31l-1.94-.05c-.38,0-.55-.18-.53-.57,0-.67,0-1.33,0-2h0c0-.64,0-1.27,0-1.9,0-.32,0-.5.45-.43a12.85,12.85,0,0,0,2.15,0C10.62,20.34,10.85,20.34,10.84,20.69ZM7.74,8.35A3.49,3.49,0,0,1,8,5.57a2.1,2.1,0,0,1,3.26-.27.38.38,0,0,1,0,.57.36.36,0,0,1-.56.09l-.09-.06c-.46-.33-.95-.64-1.52-.26a1.74,1.74,0,0,0-.66,1.72A2.16,2.16,0,0,0,8.82,8.5,1,1,0,0,0,10,8.86c.45-.11.59-.49.71-.87.06-.19,0-.26-.21-.25l-.7,0c-.29,0-.5-.06-.5-.41s.2-.38.46-.38h.86c1.12,0,1.26.24,1,1.34a2.1,2.1,0,0,1-2,1.49A1.87,1.87,0,0,1,7.74,8.35Zm3.9,9.11-2-.05c-.4,0-.52-.22-.51-.59,0-.65,0-1.29,0-1.94h0c0-.65,0-1.3,0-1.94,0-.3,0-.48.42-.42a12.87,12.87,0,0,0,2.15,0c.27,0,.52,0,.5.38s-.09.49-.47.49-.89,0-1.34,0c-.64,0-.42.48-.48.8s.08.46.43.43.61,0,.92,0,.39.17.41.45-.23.32-.42.34a4.38,4.38,0,0,1-.81,0c-.41,0-.57.08-.56.52s0,.79.64.66a5.45,5.45,0,0,1,1.07,0,.51.51,0,0,1,.53.56C12.17,17.53,11.87,17.47,11.64,17.46Zm3.46,6.65a1.6,1.6,0,0,1-1.74,1.23,2.2,2.2,0,0,1-1.51-.6c-.2-.2-.28-.37,0-.59s.34-.36.61-.07a1.45,1.45,0,0,0,.9.46.74.74,0,0,0,.86-.48c.14-.4-.18-.53-.48-.65l-1-.38c-.76-.3-1-.7-1-1.42A1.48,1.48,0,0,1,13,20.29a4.58,4.58,0,0,1,.51,0,2.45,2.45,0,0,1,1.16.46.3.3,0,0,1,.1.49c-.12.2-.24.42-.54.26l-.61-.34a.7.7,0,0,0-.89.16c-.27.28-.29.57.08.8a4.32,4.32,0,0,0,1.05.41A1.52,1.52,0,0,1,15.1,24.11ZM12.15,5.19c-.07-.2-.09-.4.14-.44s.57-.12.7.28c.23.73.49,1.46.73,2.2l.32.9h.12c.31-.93.63-1.86.94-2.8a2.27,2.27,0,0,1,.16-.39.52.52,0,0,1,.68-.16c.2.07.08.32,0,.48-.42,1.32-.86,2.63-1.28,4-.08.26-.19.46-.5.46a.53.53,0,0,1-.6-.42C13.12,7.89,12.63,6.54,12.15,5.19Zm4.41,10.13a1.37,1.37,0,0,1-.1-1.1,1.22,1.22,0,0,0-1.09-1.63,10.11,10.11,0,0,0-1.65-.05c-.33,0-.44.1-.44.43,0,1.08,0,2.15,0,3.23,0,1.25-.06,1.25,1.18,1.29a9.61,9.61,0,0,0,1.07-.07A1.44,1.44,0,0,0,16.56,15.32Zm-1.8-2c.55,0,1,.3.94.67s-.28.59-1,.56c-.52.17-.64-.11-.64-.63S14.33,13.32,14.76,13.33Zm.65,3.25a3.73,3.73,0,0,1-.57,0c-.25-.08-.61.13-.69-.14a3.11,3.11,0,0,1,0-1,.16.16,0,0,1,0-.09,1.82,1.82,0,0,1,1.65.43A.56.56,0,0,1,15.41,16.58ZM17,20.76c0,1.38,0,2.77,0,4.15,0,.45-.34.33-.59.35S16,25.1,16,24.84c0-.66,0-1.32,0-2h0V20.8c0-.27.06-.46.38-.46S17,20.42,17,20.76Zm5,3a2.08,2.08,0,0,1-2,1.58,1.89,1.89,0,0,1-1.85-1.52A3.4,3.4,0,0,1,18.43,21a2.14,2.14,0,0,1,3.18-.09.39.39,0,0,1,0,.57c-.15.17-.32.24-.52.08l-.13-.08c-.44-.33-.89-.59-1.44-.29a1.67,1.67,0,0,0-.75,1.52,2.35,2.35,0,0,0,.34,1.23,1,1,0,0,0,1.08.56c.5-.06.72-.42.86-.85.08-.21,0-.34-.22-.32s-.51,0-.76,0-.41-.11-.4-.39.09-.41.38-.39h1C22.07,22.56,22.2,22.74,21.94,23.79Zm4.64-2.9c0,1.28,0,2.56-.09,3.84,0,.19.11.47-.22.52a.64.64,0,0,1-.68-.32c-.42-.67-.85-1.34-1.26-2a1.71,1.71,0,0,0-.4-.53v2.28c0,.3.06.63-.43.63s-.4-.32-.4-.6c0-1.28,0-2.56,0-3.83,0-.18-.17-.47.19-.52a.66.66,0,0,1,.73.32c.46.8,1,1.57,1.44,2.35.06.09.08.2.24.21a17.72,17.72,0,0,0,.06-2.3c0-.3,0-.58.42-.58S26.58,20.62,26.58,20.89ZM29.74.15H.22C.21.32.18.5.18.68q0,14.28,0,28.56c0,.49.12.62.61.62q14.27,0,28.51,0c.18,0,.36,0,.54,0V.15Zm-.5,28.55c0,.45-.15.52-.56.52-4.57,0-9.14,0-13.71,0s-9.07,0-13.62,0c-.39,0-.55-.08-.55-.53Q.85,15,.8,1.25C.8.8,1,.73,1.35.73Q15,.75,28.7.73c.39,0,.54.07.54.52Q29.21,15,29.24,28.7Z" transform="translate(-0.17 -0.14)" fill="#010101"/></svg>